<svg width="100.000000" height="35.000000" viewBox="0 0 100 35" fill="none" xmlns="http://www.w3.org/2000/svg" xmlns:xlink="http://www.w3.org/1999/xlink">
	<desc>
			Created with Pixso.
	</desc>
	<defs/>
	<path id="ะก&amp;R" d="M24.5 25.26L23.26 25.26L21 31.21Q20.66 31.59 19.6 31.84Q18.55 32.07 16.96 32.07Q13.99 32.07 11.63 31.04Q10.39 30.49 9.34 29.69Q8.42 28.98 7.65 28.07Q6.02 26.12 5.15 23.37Q4.3 20.6 4.3 17.19Q4.3 13.41 5.25 10.6Q6.21 7.79 7.81 5.94Q9.1 4.46 10.72 3.6Q11.13 3.39 11.56 3.21Q12.1 2.99 12.65 2.82Q14.3 2.32 16.1 2.32Q17.3 2.32 18.52 2.41Q19.75 2.51 20.28 2.8L22.78 9.7L24.02 9.7Q24.16 8.8 24.3 7.7Q24.45 6.58 24.55 5.44Q24.64 4.29 24.69 3.26Q24.73 2.21 24.73 1.45Q23.1 0.63 20.95 0.23Q18.79 -0.18 15.62 -0.18Q12.72 -0.18 10.06 0.6Q9.77 0.69 9.48 0.78Q7.87 1.3 6.48 2.17Q5.33 2.88 4.33 3.83Q2.13 5.92 0.83 9.21Q-0.46 12.49 -0.46 17.19Q-0.46 21.7 0.71 25Q1.89 28.29 4.07 30.4Q4.22 30.54 4.37 30.68Q6.48 32.58 9.43 33.54Q12.59 34.57 16.62 34.57Q17.68 34.57 18.85 34.48Q20.03 34.38 21.16 34.14Q22.3 33.9 23.3 33.54Q24.31 33.17 25.03 32.6Q25.12 30.68 24.92 28.64Q24.73 26.6 24.5 25.26ZM58.82 32.34Q60.36 33.33 61.36 34L68.18 34L68.18 32.8L65.54 31.64Q63.38 30.4 61.62 29.13Q59.88 27.85 58.05 26.37Q58.43 25.79 59.08 24.57Q59.74 23.34 60.45 21.6Q61.18 19.84 61.84 17.53Q62.51 15.22 62.95 12.4Q64.82 12.06 66.11 11.24L66.11 10L56.37 10L56.37 11.24Q57.77 12.1 59.21 12.4Q59.22 12.57 59.23 12.74Q59.32 14.54 59.03 16.36Q58.73 18.35 58.22 20.03Q57.72 21.7 57.13 22.96Q56.56 24.2 56.18 24.73Q53.3 22.14 50.7 19.55Q48.11 16.96 46.14 14.51Q47.21 13.69 48.29 12.74Q49.05 12.06 49.7 11.29Q49.97 10.96 50.22 10.63Q50.4 10.39 50.56 10.14Q51.2 9.19 51.64 8.1Q51.68 7.99 51.72 7.89Q52.2 6.61 52.2 5.14Q52.2 3.59 51.5 2.47Q51.03 1.74 50.25 1.19Q48.31 -0.18 45.13 -0.18Q43.41 -0.18 42.04 0.37Q40.68 0.92 39.74 1.82Q39.24 2.28 38.87 2.84Q38.55 3.32 38.33 3.88Q37.93 4.84 37.86 5.82Q37.84 6.04 37.84 6.26Q37.84 8.03 38.81 10.09Q39.77 12.15 41.15 13.69Q40.29 14.32 38.99 15.3Q37.7 16.29 36.5 17.71Q35.3 19.11 34.43 21.01Q33.57 22.91 33.57 25.26Q33.57 25.94 33.67 26.59Q33.86 27.71 34.35 28.77Q34.52 29.11 34.71 29.44Q35.45 30.71 36.59 31.75Q38.03 33.03 40.09 33.81Q42.17 34.57 44.71 34.57Q46.68 34.57 48.36 34.14Q50.03 33.7 51.4 32.99Q52.77 32.27 53.78 31.38Q54.79 30.49 55.46 29.58Q57.29 31.36 58.82 32.34ZM81.67 31.96Q80.66 31.69 79.56 31.45L79.56 19.11L84.07 19.11Q84.94 21.03 85.77 22.75Q86.61 24.44 87.57 26.11Q88.53 27.76 89.63 29.37Q90.74 30.97 92.08 32.65L93.91 34L99.71 34L99.71 32.8L97.12 31.41Q94.67 28.23 92.41 25.02Q90.16 21.81 88.1 18.54Q90.77 17.69 92.5 15.92Q92.82 15.59 93.12 15.23Q93.37 14.92 93.59 14.57Q94.97 12.44 94.97 9.42Q94.97 6.92 94.12 5.16Q93.52 3.88 92.59 2.93Q92.22 2.55 91.79 2.23Q90.3 1.07 88.26 0.54Q86.22 0.01 83.88 0.01Q81.71 0.01 79.43 0.21Q77.15 0.4 75.23 0.4L71.01 0.4L71.01 1.79Q71.78 2.12 72.74 2.44Q73.7 2.75 74.95 2.99L74.95 31.45Q73.99 31.64 73.03 31.89Q72.07 32.12 71.01 32.6L71.01 34L83.63 34L83.63 32.6Q83.39 32.5 83.14 32.41Q82.42 32.15 81.67 31.96ZM41.77 7.86Q41.44 6.88 41.44 6.01Q41.44 5.52 41.51 5.03Q41.55 4.77 41.61 4.51Q41.76 3.87 42.08 3.35Q42.14 3.25 42.2 3.16Q42.35 2.96 42.53 2.78Q42.87 2.43 43.33 2.2Q44.03 1.84 45.09 1.84Q46.75 1.84 47.62 2.67Q47.73 2.78 47.83 2.89Q48 3.1 48.14 3.33Q48.71 4.25 48.79 5.48Q49.01 7.95 48.04 9.79Q48 9.88 47.95 9.97Q47.68 10.45 47.37 10.89Q46.43 12.23 45.13 13.31Q44.51 12.58 43.87 11.68Q43.22 10.77 42.66 9.81Q42.11 8.85 41.77 7.86ZM80.92 2.55Q81.67 2.51 82.81 2.51Q85.81 2.51 87.79 3.93Q87.97 4.05 88.15 4.19Q88.44 4.43 88.69 4.71Q90.21 6.38 90.21 9.42Q90.21 12.3 88.86 14.24Q88.59 14.63 88.26 14.99Q87.71 15.59 87.04 16.02Q85.37 17.1 83.01 17.1L79.56 17.1L79.56 2.75Q80.18 2.6 80.92 2.55ZM50.68 25.05Q52.39 26.8 53.83 28.09Q52.39 30.1 50.51 31.09Q49.72 31.5 48.88 31.74Q47.73 32.07 46.48 32.07Q45 32.07 43.7 31.6Q43.48 31.52 43.27 31.43Q42.19 30.96 41.34 30.23Q41.02 29.95 40.73 29.64Q40.71 29.61 40.68 29.59Q39.66 28.44 39.06 26.92Q38.47 25.36 38.47 23.53Q38.47 20.99 39.38 19.09Q40.29 17.19 42.36 15.17Q43.12 16.29 44.47 17.96Q45.81 19.64 47.4 21.47Q48.98 23.3 50.68 25.05Z" fill="#FFFFFF" fill-opacity="1.000000" fill-rule="evenodd"/>
</svg>
